# xmcd CD database file
#
# Track frame offsets:
#	150
#	20540
#	37697
#	50647
#	62707
#	74807
#	88895
#	103815
#	117100
#	128567
#	141990
#	151665
#	168960
#	191837
#
# Disc length: 2782 seconds
#
# Revision: 2
# Processed by: cddbd v1.5PL3 Copyright (c) Steve Scherf et al.
# Submitted via: CDex 1.51
#
DISCID=c30adc0e
DTITLE=Etta James - The Gospel Soul Of Etta James
DYEAR=1990
DGENRE=Gospel
TTITLE0=Oh Happy Day
TTITLE1=Blowin' In The Wind
TTITLE2=Swing Low Sweet Chariot
TTITLE3=He's Got The Whole World In His Hands
TTITLE4=I'll Make It Alright
TTITLE5=Down By The Riverside
TTITLE6=To My Father's House
TTITLE7=Amen/ This Little Light Of Mine
TTITLE8=Jesus Lover Of My Soul
TTITLE9=We'll Fly You To The Promised Land
TTITLE10=Jesus Is My Kind Of People
TTITLE11=Walk Over God's Heaven
TTITLE12=Lord Don't Move That Mountain
TTITLE13=Storms Of Troubled Times
EXTD=YEAR: 1990
EXTT0=
EXTT1=
EXTT2=
EXTT3=
EXTT4=
EXTT5=
EXTT6=
EXTT7=
EXTT8=
EXTT9=
EXTT10=
EXTT11=
EXTT12=
EXTT13=
PLAYORDER=
